<svg width="20" height="20" viewBox="0 0 20 20" fill="none" xmlns="http://www.w3.org/2000/svg">
<path d="M16.2476 6.6574L10.0001 12.7474L3.7526 6.6574C3.64097 6.54837 3.49113 6.48733 3.3351 6.48733C3.17906 6.48733 3.02922 6.54837 2.9176 6.6574C2.86355 6.71036 2.82061 6.77356 2.7913 6.84332C2.76199 6.91308 2.74689 6.98798 2.74689 7.06365C2.74689 7.13932 2.76199 7.21422 2.7913 7.28398C2.82061 7.35374 2.86355 7.41694 2.9176 7.4699L9.56385 13.9499C9.68056 14.0637 9.8371 14.1273 10.0001 14.1273C10.1631 14.1273 10.3196 14.0637 10.4363 13.9499L17.0826 7.47115C17.137 7.41816 17.1803 7.35479 17.2098 7.2848C17.2394 7.21481 17.2546 7.13962 17.2546 7.06365C17.2546 6.98768 17.2394 6.91248 17.2098 6.8425C17.1803 6.77251 17.137 6.70914 17.0826 6.65615C16.971 6.54712 16.8211 6.48608 16.6651 6.48608C16.5091 6.48608 16.3592 6.54712 16.2476 6.65615V6.6574Z" fill="#FDFDFD"/>
</svg>
