<svg width="18" height="18" viewBox="0 0 18 18" fill="none" xmlns="http://www.w3.org/2000/svg">
<g clip-path="url(#clip0_3_1220)">
<path d="M16.3126 18H1.68759C0.753842 18 9.15527e-05 17.2463 9.15527e-05 16.3125V2.8125C9.15527e-05 1.87875 0.753842 1.125 1.68759 1.125H16.3126C17.2463 1.125 18.0001 1.87875 18.0001 2.8125V16.3125C18.0001 17.2463 17.2463 18 16.3126 18ZM1.68759 2.25C1.37259 2.25 1.12509 2.4975 1.12509 2.8125V16.3125C1.12509 16.6275 1.37259 16.875 1.68759 16.875H16.3126C16.6276 16.875 16.8751 16.6275 16.8751 16.3125V2.8125C16.8751 2.4975 16.6276 2.25 16.3126 2.25H1.68759Z" fill="#FDFDFD"/>
<path d="M5.06259 4.5C4.74759 4.5 4.50009 4.2525 4.50009 3.9375V0.5625C4.50009 0.2475 4.74759 0 5.06259 0C5.37759 0 5.62509 0.2475 5.62509 0.5625V3.9375C5.62509 4.2525 5.37759 4.5 5.06259 4.5ZM12.9376 4.5C12.6226 4.5 12.3751 4.2525 12.3751 3.9375V0.5625C12.3751 0.2475 12.6226 0 12.9376 0C13.2526 0 13.5001 0.2475 13.5001 0.5625V3.9375C13.5001 4.2525 13.2526 4.5 12.9376 4.5ZM17.4376 6.75H0.562592C0.247592 6.75 9.15527e-05 6.5025 9.15527e-05 6.1875C9.15527e-05 5.8725 0.247592 5.625 0.562592 5.625H17.4376C17.7526 5.625 18.0001 5.8725 18.0001 6.1875C18.0001 6.5025 17.7526 6.75 17.4376 6.75Z" fill="#FDFDFD"/>
</g>
<defs>
<clipPath id="clip0_3_1220">
<rect width="18" height="18" fill="white"/>
</clipPath>
</defs>
</svg>
